<mxfile host="app.diagrams.net" modified="2020-10-20T02:02:14.855Z" agent="5.0 (Windows NT 10.0; Win64; x64) AppleWebKit/537.36 (KHTML, like Gecko) Chrome/86.0.4240.75 Safari/537.36" etag="h90bPYZUcBdgNaWCosam" version="13.7.5" type="github">
  <diagram id="9TIolugtOC5U93OiDPQ6" name="第 1 页">
    <mxGraphModel dx="868" dy="394" grid="1" gridSize="10" guides="1" tooltips="1" connect="1" arrows="1" fold="1" page="1" pageScale="1" pageWidth="827" pageHeight="1169" math="0" shadow="0">
      <root>
        <mxCell id="0" />
        <mxCell id="1" parent="0" />
        <mxCell id="ImfXRq7A5utKCSKGuCCQ-1" value="" style="whiteSpace=wrap;html=1;aspect=fixed;" vertex="1" parent="1">
          <mxGeometry x="250" y="50" width="470" height="470" as="geometry" />
        </mxCell>
        <mxCell id="ImfXRq7A5utKCSKGuCCQ-3" value="&lt;font style=&quot;font-size: 30px&quot;&gt;进程&lt;/font&gt;" style="text;html=1;strokeColor=none;fillColor=none;align=center;verticalAlign=middle;whiteSpace=wrap;rounded=0;" vertex="1" parent="1">
          <mxGeometry x="370" y="450" width="170" height="40" as="geometry" />
        </mxCell>
        <mxCell id="ImfXRq7A5utKCSKGuCCQ-4" value="" style="rounded=0;whiteSpace=wrap;html=1;" vertex="1" parent="1">
          <mxGeometry x="280" y="80" width="410" height="50" as="geometry" />
        </mxCell>
        <mxCell id="ImfXRq7A5utKCSKGuCCQ-5" value="&lt;font style=&quot;font-size: 24px&quot;&gt;线程1&lt;/font&gt;" style="text;html=1;strokeColor=none;fillColor=none;align=center;verticalAlign=middle;whiteSpace=wrap;rounded=0;" vertex="1" parent="1">
          <mxGeometry x="290" y="95" width="70" height="20" as="geometry" />
        </mxCell>
        <mxCell id="ImfXRq7A5utKCSKGuCCQ-7" value="&lt;font style=&quot;font-size: 24px&quot;&gt;协程1&lt;/font&gt;" style="shape=step;perimeter=stepPerimeter;whiteSpace=wrap;html=1;fixedSize=1;" vertex="1" parent="1">
          <mxGeometry x="359" y="85" width="110" height="40" as="geometry" />
        </mxCell>
        <mxCell id="ImfXRq7A5utKCSKGuCCQ-8" value="&lt;font style=&quot;font-size: 24px&quot;&gt;协程2&lt;/font&gt;" style="shape=step;perimeter=stepPerimeter;whiteSpace=wrap;html=1;fixedSize=1;" vertex="1" parent="1">
          <mxGeometry x="450" y="85" width="110" height="40" as="geometry" />
        </mxCell>
        <mxCell id="ImfXRq7A5utKCSKGuCCQ-9" value="&lt;font style=&quot;font-size: 24px&quot;&gt;协程3&lt;/font&gt;" style="shape=step;perimeter=stepPerimeter;whiteSpace=wrap;html=1;fixedSize=1;" vertex="1" parent="1">
          <mxGeometry x="540" y="85" width="110" height="40" as="geometry" />
        </mxCell>
        <mxCell id="ImfXRq7A5utKCSKGuCCQ-14" value="" style="rounded=0;whiteSpace=wrap;html=1;" vertex="1" parent="1">
          <mxGeometry x="280" y="160" width="410" height="50" as="geometry" />
        </mxCell>
        <mxCell id="ImfXRq7A5utKCSKGuCCQ-15" value="&lt;font style=&quot;font-size: 24px&quot;&gt;线程2&lt;/font&gt;" style="text;html=1;strokeColor=none;fillColor=none;align=center;verticalAlign=middle;whiteSpace=wrap;rounded=0;" vertex="1" parent="1">
          <mxGeometry x="290" y="175" width="70" height="20" as="geometry" />
        </mxCell>
        <mxCell id="ImfXRq7A5utKCSKGuCCQ-16" value="&lt;font style=&quot;font-size: 24px&quot;&gt;协程1&lt;/font&gt;" style="shape=step;perimeter=stepPerimeter;whiteSpace=wrap;html=1;fixedSize=1;" vertex="1" parent="1">
          <mxGeometry x="359" y="165" width="110" height="40" as="geometry" />
        </mxCell>
        <mxCell id="ImfXRq7A5utKCSKGuCCQ-17" value="&lt;font style=&quot;font-size: 24px&quot;&gt;协程2&lt;/font&gt;" style="shape=step;perimeter=stepPerimeter;whiteSpace=wrap;html=1;fixedSize=1;" vertex="1" parent="1">
          <mxGeometry x="450" y="165" width="110" height="40" as="geometry" />
        </mxCell>
        <mxCell id="ImfXRq7A5utKCSKGuCCQ-18" value="&lt;font style=&quot;font-size: 24px&quot;&gt;协程3&lt;/font&gt;" style="shape=step;perimeter=stepPerimeter;whiteSpace=wrap;html=1;fixedSize=1;" vertex="1" parent="1">
          <mxGeometry x="540" y="165" width="110" height="40" as="geometry" />
        </mxCell>
        <mxCell id="ImfXRq7A5utKCSKGuCCQ-19" value="" style="rounded=0;whiteSpace=wrap;html=1;" vertex="1" parent="1">
          <mxGeometry x="280" y="250" width="410" height="50" as="geometry" />
        </mxCell>
        <mxCell id="ImfXRq7A5utKCSKGuCCQ-20" value="&lt;font style=&quot;font-size: 24px&quot;&gt;线程3&lt;/font&gt;" style="text;html=1;strokeColor=none;fillColor=none;align=center;verticalAlign=middle;whiteSpace=wrap;rounded=0;" vertex="1" parent="1">
          <mxGeometry x="290" y="265" width="70" height="20" as="geometry" />
        </mxCell>
        <mxCell id="ImfXRq7A5utKCSKGuCCQ-21" value="&lt;font style=&quot;font-size: 24px&quot;&gt;协程1&lt;/font&gt;" style="shape=step;perimeter=stepPerimeter;whiteSpace=wrap;html=1;fixedSize=1;" vertex="1" parent="1">
          <mxGeometry x="359" y="255" width="110" height="40" as="geometry" />
        </mxCell>
        <mxCell id="ImfXRq7A5utKCSKGuCCQ-22" value="&lt;font style=&quot;font-size: 24px&quot;&gt;协程2&lt;/font&gt;" style="shape=step;perimeter=stepPerimeter;whiteSpace=wrap;html=1;fixedSize=1;" vertex="1" parent="1">
          <mxGeometry x="450" y="255" width="110" height="40" as="geometry" />
        </mxCell>
        <mxCell id="ImfXRq7A5utKCSKGuCCQ-23" value="&lt;font style=&quot;font-size: 24px&quot;&gt;协程3&lt;/font&gt;" style="shape=step;perimeter=stepPerimeter;whiteSpace=wrap;html=1;fixedSize=1;" vertex="1" parent="1">
          <mxGeometry x="540" y="255" width="110" height="40" as="geometry" />
        </mxCell>
        <mxCell id="ImfXRq7A5utKCSKGuCCQ-24" value="" style="rounded=0;whiteSpace=wrap;html=1;" vertex="1" parent="1">
          <mxGeometry x="280" y="340" width="410" height="50" as="geometry" />
        </mxCell>
        <mxCell id="ImfXRq7A5utKCSKGuCCQ-25" value="&lt;font style=&quot;font-size: 24px&quot;&gt;线程4&lt;/font&gt;" style="text;html=1;strokeColor=none;fillColor=none;align=center;verticalAlign=middle;whiteSpace=wrap;rounded=0;" vertex="1" parent="1">
          <mxGeometry x="290" y="355" width="70" height="20" as="geometry" />
        </mxCell>
        <mxCell id="ImfXRq7A5utKCSKGuCCQ-26" value="&lt;font style=&quot;font-size: 24px&quot;&gt;协程1&lt;/font&gt;" style="shape=step;perimeter=stepPerimeter;whiteSpace=wrap;html=1;fixedSize=1;" vertex="1" parent="1">
          <mxGeometry x="359" y="345" width="110" height="40" as="geometry" />
        </mxCell>
        <mxCell id="ImfXRq7A5utKCSKGuCCQ-27" value="&lt;font style=&quot;font-size: 24px&quot;&gt;协程2&lt;/font&gt;" style="shape=step;perimeter=stepPerimeter;whiteSpace=wrap;html=1;fixedSize=1;" vertex="1" parent="1">
          <mxGeometry x="450" y="345" width="110" height="40" as="geometry" />
        </mxCell>
        <mxCell id="ImfXRq7A5utKCSKGuCCQ-28" value="&lt;font style=&quot;font-size: 24px&quot;&gt;协程3&lt;/font&gt;" style="shape=step;perimeter=stepPerimeter;whiteSpace=wrap;html=1;fixedSize=1;" vertex="1" parent="1">
          <mxGeometry x="540" y="345" width="110" height="40" as="geometry" />
        </mxCell>
      </root>
    </mxGraphModel>
  </diagram>
</mxfile>
